<svg width="44" height="15" viewBox="0 0 44 15" fill="none" xmlns="http://www.w3.org/2000/svg">
<path d="M8.2749 14.2162H3.23438V13.4999H4.67578V9.18011H3.95508V7.73871H3.23438V6.2973H2.51367V4.86029H1.79297V3.41888H0.360352V2.69818H5.39648V3.41888H3.95508V4.86029H4.67578V6.2973H5.39648V7.73871H6.11279V9.18011H6.8335V13.4999H8.2749V14.2162ZM9.71631 4.86029H8.99561V3.41888H7.5542V2.69818H11.1533V3.41888H9.71631V4.86029ZM8.99561 6.2973H8.2749V4.86029H8.99561V6.2973ZM8.2749 7.73871H7.5542V6.2973H8.2749V7.73871ZM7.5542 9.18011H6.8335V7.73871H7.5542V9.18011ZM16.0907 14.2162H11.7708V13.4999H11.0501V12.7792H10.3294V11.3378H9.61312V9.18011H10.3294V7.73871H11.0501V7.01801H11.7708V6.2973H16.0907V7.01801H16.8114V7.73871H17.5321V9.18011H11.7708V11.3378H12.4915V12.7792H13.2122V13.4999H16.0907V14.2162ZM11.7708 8.45941H15.37V7.73871H14.6493V7.01801H12.4915V7.73871H11.7708V8.45941ZM17.5321 12.7792H16.8114V12.0585H17.5321V12.7792ZM16.8114 13.4999H16.0907V12.7792H16.8114V13.4999ZM22.1222 14.2162H18.5231V13.4999H19.2394V8.45941H18.5231V7.73871H19.2394V7.01801H19.9601V6.2973H20.6808V5.5766H21.4015V7.01801H22.1222V7.73871H21.4015V13.4999H22.1222V14.2162ZM25.7214 8.45941H23.5593V7.01801H22.1222V6.2973H25.0007V7.01801H25.7214V8.45941ZM28.1406 14.2162H26.6992V3.41888H25.9829V2.69818H26.6992V1.97748H27.4199V1.25677H28.1406V0.540466H28.8613V7.01801H29.5821V7.73871H28.8613V12.7792H29.5821V13.4999H31.0191V12.7792H31.7398V11.3378H32.4605V9.18011H31.7398V7.73871H31.0191V7.01801H29.5821V6.2973H32.4605V7.01801H33.1812V7.73871H33.9019V9.18011H34.6226V11.3378H33.9019V12.7792H33.1812V13.4999H32.4605V14.2162H28.8613V13.4999H28.1406V14.2162ZM43.5238 14.2162H41.3617V13.4999H39.9247V12.7792H40.641V9.89642H39.9247V9.18011H40.641V7.73871H39.9247V7.01801H38.4833V7.73871H37.7626V8.45941H35.6048V7.73871H36.3212V7.01801H37.0419V6.2973H41.3617V7.01801H42.0824V7.73871H42.8031V13.4999H43.5238V14.2162ZM39.9247 14.2162H37.0419V13.4999H36.3212V12.7792H35.6048V11.3378H36.3212V10.6171H37.7626V9.89642H39.9247V10.6171H38.4833V11.3378H37.7626V12.7792H38.4833V13.4999H39.9247V14.2162Z" fill="black"/>
</svg>
